<?xml version="1.0" encoding="UTF-8"?>
<svg xmlns="http://www.w3.org/2000/svg" xmlns:xlink="http://www.w3.org/1999/xlink" width="503pt" height="220pt" viewBox="0 0 503 220" version="1.1">
<defs>
<clipPath id="clip1">
  <path d="M 4 0.796875 L 32 0.796875 L 32 31 L 4 31 Z M 4 0.796875 "/>
</clipPath>
<clipPath id="clip2">
  <path d="M 155 0.796875 L 191 0.796875 L 191 32 L 155 32 Z M 155 0.796875 "/>
</clipPath>
<clipPath id="clip3">
  <path d="M 314 0.796875 L 333 0.796875 L 333 32 L 314 32 Z M 314 0.796875 "/>
</clipPath>
<clipPath id="clip4">
  <path d="M 358 0.796875 L 386 0.796875 L 386 31 L 358 31 Z M 358 0.796875 "/>
</clipPath>
<clipPath id="clip5">
  <path d="M 437 0.796875 L 471 0.796875 L 471 32 L 437 32 Z M 437 0.796875 "/>
</clipPath>
<clipPath id="clip6">
  <path d="M 427 54 L 502.636719 54 L 502.636719 164 L 427 164 Z M 427 54 "/>
</clipPath>
</defs>
<g id="surface1">
<path style=" stroke:none;fill-rule:nonzero;fill:rgb(87.939453%,37.007141%,8.355713%);fill-opacity:1;" d="M 448.257812 204.285156 L 500.722656 204.78125 C 500.722656 204.78125 501.203125 205.027344 501.203125 205.457031 C 501.203125 205.878906 500.722656 206.105469 500.722656 206.105469 L 448.257812 206.613281 L 395.769531 207.121094 C 395.769531 207.121094 394.511719 206.863281 394.511719 205.457031 C 394.511719 204.039062 395.769531 203.785156 395.769531 203.785156 L 448.257812 204.285156 "/>
<path style=" stroke:none;fill-rule:nonzero;fill:rgb(87.939453%,37.007141%,8.355713%);fill-opacity:1;" d="M 59.332031 206.625 L 6.867188 206.125 C 6.867188 206.125 6.382812 205.878906 6.382812 205.453125 C 6.382812 205.027344 6.867188 204.804688 6.867188 204.804688 L 59.332031 204.292969 L 111.816406 203.789062 C 111.816406 203.789062 113.078125 204.046875 113.078125 205.453125 C 113.078125 206.867188 111.816406 207.121094 111.816406 207.121094 L 59.332031 206.625 "/>
<g clip-path="url(#clip1)" clip-rule="nonzero">
<path style=" stroke:none;fill-rule:nonzero;fill:rgb(87.939453%,37.007141%,8.355713%);fill-opacity:1;" d="M 15.695312 3.84375 L 9.738281 3.980469 C 7.417969 4.027344 6.460938 4.296875 5.871094 5.164062 C 5.460938 5.707031 5.28125 6.207031 5.1875 6.484375 C 5.09375 6.804688 5.007812 6.984375 4.730469 6.984375 C 4.460938 6.984375 4.371094 6.753906 4.371094 6.347656 C 4.371094 5.707031 5.144531 1.980469 5.230469 1.660156 C 5.324219 1.160156 5.460938 0.933594 5.6875 0.933594 C 6.011719 0.933594 6.417969 1.253906 7.417969 1.386719 C 8.601562 1.523438 10.101562 1.566406 11.417969 1.566406 L 27.660156 1.566406 C 28.933594 1.566406 29.796875 1.480469 30.394531 1.386719 C 31.027344 1.296875 31.34375 1.207031 31.484375 1.207031 C 31.757812 1.207031 31.800781 1.433594 31.800781 2.027344 C 31.800781 2.84375 31.710938 5.707031 31.710938 6.710938 C 31.667969 7.121094 31.574219 7.347656 31.34375 7.347656 C 31.027344 7.347656 30.9375 7.164062 30.890625 6.574219 L 30.84375 6.164062 C 30.753906 5.164062 29.710938 3.980469 26.113281 3.933594 L 21.066406 3.84375 L 21.066406 19.492188 C 21.066406 23.039062 21.109375 26.089844 21.292969 27.773438 C 21.429688 28.863281 21.65625 29.59375 22.839844 29.773438 C 23.386719 29.867188 24.292969 29.910156 24.882812 29.910156 C 25.34375 29.910156 25.523438 30.136719 25.523438 30.320312 C 25.523438 30.59375 25.207031 30.730469 24.746094 30.730469 C 22.113281 30.730469 19.429688 30.59375 18.289062 30.59375 C 17.378906 30.59375 14.648438 30.730469 13.054688 30.730469 C 12.558594 30.730469 12.285156 30.59375 12.285156 30.320312 C 12.285156 30.136719 12.421875 29.910156 12.921875 29.910156 C 13.515625 29.910156 14.015625 29.867188 14.332031 29.773438 C 15.152344 29.59375 15.378906 28.863281 15.515625 27.730469 C 15.695312 26.089844 15.695312 23.039062 15.695312 19.492188 L 15.695312 3.84375 "/>
</g>
<path style=" stroke:none;fill-rule:nonzero;fill:rgb(87.939453%,37.007141%,8.355713%);fill-opacity:1;" d="M 61.261719 14.078125 C 61.351562 14.078125 61.488281 14.035156 61.488281 13.804688 L 61.488281 12.984375 C 61.488281 7.121094 61.445312 5.707031 61.402344 4.480469 C 61.304688 3.160156 60.941406 2.75 59.671875 2.390625 C 59.351562 2.296875 58.667969 2.25 58.125 2.25 C 57.664062 2.25 57.441406 2.117188 57.441406 1.84375 C 57.441406 1.570312 57.714844 1.480469 58.304688 1.480469 C 60.445312 1.480469 63.265625 1.570312 64.308594 1.570312 C 65.265625 1.570312 67.90625 1.480469 69.453125 1.480469 C 70.042969 1.480469 70.316406 1.570312 70.316406 1.84375 C 70.316406 2.117188 70.042969 2.25 69.585938 2.25 C 69.269531 2.25 68.902344 2.296875 68.40625 2.390625 C 67.359375 2.570312 67.039062 3.113281 66.949219 4.480469 C 66.855469 5.707031 66.855469 6.800781 66.855469 12.671875 L 66.855469 19.492188 C 66.855469 23.042969 66.855469 26.089844 67.039062 27.773438 C 67.175781 28.863281 67.402344 29.59375 68.632812 29.773438 C 69.175781 29.863281 70.042969 29.910156 70.679688 29.910156 C 71.089844 29.910156 71.316406 30.136719 71.316406 30.320312 C 71.316406 30.589844 70.996094 30.730469 70.496094 30.730469 C 67.90625 30.730469 65.265625 30.589844 64.171875 30.589844 C 63.265625 30.589844 60.445312 30.730469 58.894531 30.730469 C 58.351562 30.730469 58.03125 30.589844 58.03125 30.320312 C 58.03125 30.136719 58.210938 29.910156 58.667969 29.910156 C 59.304688 29.910156 59.761719 29.863281 60.121094 29.773438 C 60.941406 29.59375 61.171875 28.863281 61.304688 27.726562 C 61.488281 26.089844 61.488281 23.132812 61.488281 19.582031 L 61.488281 16.628906 C 61.488281 16.488281 61.351562 16.398438 61.261719 16.398438 L 46.15625 16.398438 C 46.023438 16.398438 45.886719 16.445312 45.886719 16.628906 L 45.886719 19.582031 C 45.886719 23.132812 45.933594 26.089844 46.113281 27.773438 C 46.246094 28.863281 46.476562 29.59375 47.660156 29.773438 C 48.207031 29.863281 49.113281 29.910156 49.707031 29.910156 C 50.164062 29.910156 50.34375 30.136719 50.34375 30.320312 C 50.34375 30.589844 50.027344 30.730469 49.527344 30.730469 C 46.929688 30.730469 44.15625 30.589844 43.019531 30.589844 C 42.109375 30.589844 39.46875 30.730469 37.878906 30.730469 C 37.378906 30.730469 37.105469 30.589844 37.105469 30.320312 C 37.105469 30.136719 37.242188 29.910156 37.742188 29.910156 C 38.335938 29.910156 38.789062 29.863281 39.15625 29.773438 C 39.972656 29.59375 40.199219 28.863281 40.335938 27.726562 C 40.519531 26.089844 40.519531 23.042969 40.519531 19.492188 L 40.519531 12.671875 C 40.519531 6.800781 40.519531 5.707031 40.46875 4.480469 C 40.382812 3.160156 40.019531 2.75 38.742188 2.390625 C 38.421875 2.296875 37.742188 2.25 37.15625 2.25 C 36.742188 2.25 36.46875 2.117188 36.46875 1.84375 C 36.46875 1.570312 36.785156 1.480469 37.335938 1.480469 C 39.46875 1.480469 42.109375 1.570312 43.203125 1.570312 C 44.15625 1.570312 46.929688 1.480469 48.523438 1.480469 C 49.070312 1.480469 49.339844 1.570312 49.339844 1.84375 C 49.339844 2.117188 49.113281 2.25 48.617188 2.25 C 48.296875 2.25 47.933594 2.296875 47.476562 2.390625 C 46.386719 2.570312 46.070312 3.113281 45.980469 4.480469 C 45.886719 5.707031 45.886719 7.121094 45.886719 12.984375 L 45.886719 13.804688 C 45.886719 14.035156 46.023438 14.078125 46.15625 14.078125 L 61.261719 14.078125 "/>
<path style=" stroke:none;fill-rule:nonzero;fill:rgb(87.939453%,37.007141%,8.355713%);fill-opacity:1;" d="M 80.378906 12.671875 C 80.378906 6.800781 80.378906 5.707031 80.335938 4.480469 C 80.238281 3.160156 79.878906 2.75 78.605469 2.390625 C 78.285156 2.296875 77.605469 2.25 77.015625 2.25 C 76.601562 2.25 76.332031 2.117188 76.332031 1.84375 C 76.332031 1.566406 76.648438 1.480469 77.238281 1.480469 C 79.332031 1.480469 81.878906 1.566406 83.019531 1.566406 C 84.289062 1.566406 93.160156 1.617188 93.933594 1.566406 C 94.660156 1.523438 95.300781 1.386719 95.617188 1.34375 C 95.847656 1.296875 96.074219 1.160156 96.253906 1.160156 C 96.484375 1.160156 96.527344 1.34375 96.527344 1.523438 C 96.527344 1.796875 96.300781 2.25 96.210938 4.027344 C 96.164062 4.4375 96.074219 6.117188 95.980469 6.574219 C 95.933594 6.753906 95.847656 7.210938 95.527344 7.210938 C 95.253906 7.210938 95.207031 7.027344 95.207031 6.710938 C 95.207031 6.4375 95.164062 5.753906 94.933594 5.300781 C 94.617188 4.617188 94.296875 4.074219 92.296875 3.890625 C 91.613281 3.796875 86.839844 3.710938 86.023438 3.710938 C 85.835938 3.710938 85.746094 3.847656 85.746094 4.074219 L 85.746094 13.621094 C 85.746094 13.851562 85.789062 14.03125 86.023438 14.03125 C 86.929688 14.03125 92.113281 14.03125 93.023438 13.941406 C 93.980469 13.851562 94.570312 13.757812 94.933594 13.351562 C 95.253906 13.078125 95.390625 12.851562 95.570312 12.851562 C 95.753906 12.851562 95.890625 13.03125 95.890625 13.261719 C 95.890625 13.488281 95.800781 14.121094 95.570312 16.078125 C 95.480469 16.851562 95.390625 18.402344 95.390625 18.675781 C 95.390625 18.992188 95.34375 19.539062 94.980469 19.539062 C 94.707031 19.539062 94.617188 19.402344 94.617188 19.21875 C 94.570312 18.808594 94.570312 18.3125 94.480469 17.8125 C 94.253906 17.035156 93.753906 16.445312 92.25 16.308594 C 91.523438 16.21875 86.972656 16.125 85.972656 16.125 C 85.789062 16.125 85.746094 16.308594 85.746094 16.539062 L 85.746094 19.628906 C 85.746094 20.949219 85.699219 24.226562 85.746094 25.359375 C 85.835938 27.996094 87.066406 28.589844 91.160156 28.589844 C 92.207031 28.589844 93.890625 28.546875 94.933594 28.089844 C 95.933594 27.636719 96.390625 26.816406 96.664062 25.226562 C 96.753906 24.8125 96.84375 24.632812 97.121094 24.632812 C 97.4375 24.632812 97.480469 25.136719 97.480469 25.542969 C 97.480469 26.40625 97.164062 29.046875 96.933594 29.820312 C 96.664062 30.820312 96.300781 30.820312 94.796875 30.820312 C 91.796875 30.820312 89.386719 30.777344 87.429688 30.683594 C 85.472656 30.636719 83.972656 30.59375 82.789062 30.59375 C 82.335938 30.59375 81.46875 30.636719 80.515625 30.636719 C 79.558594 30.683594 78.554688 30.730469 77.738281 30.730469 C 77.238281 30.730469 76.96875 30.59375 76.96875 30.320312 C 76.96875 30.136719 77.101562 29.910156 77.605469 29.910156 C 78.195312 29.910156 78.648438 29.863281 79.015625 29.773438 C 79.832031 29.59375 80.058594 28.863281 80.195312 27.726562 C 80.378906 26.089844 80.378906 23.039062 80.378906 19.492188 L 80.378906 12.671875 "/>
<path style=" stroke:none;fill-rule:nonzero;fill:rgb(87.939453%,37.007141%,8.355713%);fill-opacity:1;" d="M 123.253906 12.671875 C 123.253906 6.800781 123.292969 5.707031 123.207031 4.480469 C 123.113281 3.113281 122.75 2.75 121.476562 2.390625 C 121.15625 2.296875 120.476562 2.25 119.929688 2.25 C 119.476562 2.25 119.246094 2.117188 119.246094 1.84375 C 119.246094 1.566406 119.519531 1.480469 120.113281 1.480469 C 122.25 1.480469 124.9375 1.566406 126.117188 1.566406 C 127.117188 1.566406 129.800781 1.480469 131.257812 1.480469 C 131.851562 1.480469 132.117188 1.566406 132.117188 1.84375 C 132.117188 2.117188 131.894531 2.25 131.480469 2.25 C 131.027344 2.25 130.804688 2.296875 130.300781 2.390625 C 129.253906 2.570312 128.9375 3.113281 128.847656 4.480469 C 128.753906 5.707031 128.753906 6.800781 128.753906 12.671875 L 128.753906 18.082031 C 128.753906 23.722656 129.84375 25.90625 131.804688 27.453125 C 133.574219 28.863281 135.488281 29 136.851562 29 C 138.578125 29 140.628906 28.5 142.21875 26.949219 C 144.453125 24.859375 144.539062 21.496094 144.539062 17.53125 L 144.539062 12.671875 C 144.539062 6.800781 144.492188 5.707031 144.453125 4.480469 C 144.359375 3.160156 144.039062 2.75 142.765625 2.390625 C 142.445312 2.296875 141.765625 2.25 141.308594 2.25 C 140.855469 2.25 140.628906 2.117188 140.628906 1.84375 C 140.628906 1.566406 140.898438 1.480469 141.445312 1.480469 C 143.492188 1.480469 146.179688 1.566406 146.222656 1.566406 C 146.679688 1.566406 149.359375 1.480469 150.90625 1.480469 C 151.453125 1.480469 151.726562 1.566406 151.726562 1.84375 C 151.726562 2.117188 151.5 2.25 151.042969 2.25 C 150.585938 2.25 150.359375 2.296875 149.859375 2.390625 C 148.769531 2.570312 148.5 3.113281 148.40625 4.480469 C 148.359375 5.707031 148.316406 6.800781 148.316406 12.671875 L 148.316406 16.8125 C 148.316406 21.128906 147.859375 25.679688 144.492188 28.453125 C 141.675781 30.820312 138.625 31.230469 136.03125 31.230469 C 133.941406 31.230469 129.800781 31.136719 126.890625 28.589844 C 124.84375 26.816406 123.253906 23.949219 123.253906 18.355469 L 123.253906 12.671875 "/>
<g clip-path="url(#clip2)" clip-rule="nonzero">
<path style=" stroke:none;fill-rule:nonzero;fill:rgb(87.939453%,37.007141%,8.355713%);fill-opacity:1;" d="M 163.164062 25.453125 C 163.257812 28.453125 163.757812 29.363281 164.527344 29.636719 C 165.214844 29.867188 165.984375 29.910156 166.621094 29.910156 C 167.078125 29.910156 167.304688 30.09375 167.304688 30.320312 C 167.304688 30.636719 166.941406 30.730469 166.394531 30.730469 C 163.800781 30.730469 161.9375 30.59375 161.207031 30.59375 C 160.84375 30.59375 158.933594 30.730469 156.886719 30.730469 C 156.335938 30.730469 155.980469 30.683594 155.980469 30.320312 C 155.980469 30.09375 156.25 29.910156 156.613281 29.910156 C 157.160156 29.910156 157.886719 29.867188 158.433594 29.730469 C 159.480469 29.453125 159.617188 28.40625 159.660156 25.042969 L 160.023438 2.117188 C 160.023438 1.34375 160.300781 0.796875 160.707031 0.796875 C 161.207031 0.796875 161.753906 1.386719 162.4375 2.066406 C 162.9375 2.570312 168.945312 8.714844 174.765625 14.398438 C 177.492188 17.082031 182.820312 22.542969 183.40625 23.085938 L 183.589844 23.085938 L 183.179688 5.890625 C 183.136719 3.527344 182.769531 2.84375 181.816406 2.480469 C 181.222656 2.25 180.269531 2.25 179.726562 2.25 C 179.222656 2.25 179.089844 2.066406 179.089844 1.84375 C 179.089844 1.523438 179.496094 1.480469 180.085938 1.480469 C 182.179688 1.480469 184.320312 1.566406 185.183594 1.566406 C 185.636719 1.566406 187.136719 1.480469 189.09375 1.480469 C 189.640625 1.480469 190.003906 1.523438 190.003906 1.84375 C 190.003906 2.066406 189.773438 2.25 189.320312 2.25 C 188.910156 2.25 188.59375 2.25 188.09375 2.390625 C 187.003906 2.707031 186.683594 3.390625 186.636719 5.574219 L 186.183594 29.957031 C 186.183594 30.820312 185.863281 31.183594 185.546875 31.183594 C 184.863281 31.183594 184.320312 30.777344 183.910156 30.367188 C 181.40625 28.042969 176.402344 23.269531 172.21875 19.21875 C 167.851562 15.03125 163.617188 10.347656 162.847656 9.667969 L 162.710938 9.667969 L 163.164062 25.453125 "/>
</g>
<path style=" stroke:none;fill-rule:nonzero;fill:rgb(87.939453%,37.007141%,8.355713%);fill-opacity:1;" d="M 201.0625 12.671875 C 201.0625 6.800781 201.0625 5.707031 201.019531 4.480469 C 200.925781 3.160156 200.519531 2.707031 199.652344 2.433594 C 199.199219 2.296875 198.695312 2.25 198.195312 2.25 C 197.789062 2.25 197.5625 2.160156 197.5625 1.796875 C 197.5625 1.566406 197.882812 1.480469 198.515625 1.480469 C 200.019531 1.480469 202.746094 1.566406 203.886719 1.566406 C 204.886719 1.566406 207.480469 1.480469 209.023438 1.480469 C 209.523438 1.480469 209.84375 1.566406 209.84375 1.796875 C 209.84375 2.160156 209.617188 2.25 209.207031 2.25 C 208.796875 2.25 208.476562 2.296875 208.023438 2.390625 C 206.929688 2.570312 206.613281 3.113281 206.519531 4.480469 C 206.429688 5.707031 206.429688 6.800781 206.429688 12.671875 L 206.429688 19.492188 C 206.429688 23.222656 206.429688 26.316406 206.613281 27.953125 C 206.753906 29 207.019531 29.59375 208.207031 29.773438 C 208.75 29.863281 209.660156 29.910156 210.253906 29.910156 C 210.703125 29.910156 210.894531 30.136719 210.894531 30.320312 C 210.894531 30.59375 210.570312 30.730469 210.117188 30.730469 C 207.480469 30.730469 204.75 30.59375 203.65625 30.59375 C 202.746094 30.59375 200.019531 30.730469 198.425781 30.730469 C 197.925781 30.730469 197.648438 30.59375 197.648438 30.320312 C 197.648438 30.136719 197.789062 29.910156 198.289062 29.910156 C 198.878906 29.910156 199.335938 29.863281 199.695312 29.773438 C 200.519531 29.59375 200.746094 29.046875 200.882812 27.90625 C 201.0625 26.316406 201.0625 23.222656 201.0625 19.492188 L 201.0625 12.671875 "/>
<path style=" stroke:none;fill-rule:nonzero;fill:rgb(87.939453%,37.007141%,8.355713%);fill-opacity:1;" d="M 220.019531 5.253906 C 219.109375 3.113281 218.515625 2.753906 217.0625 2.390625 C 216.46875 2.25 215.835938 2.25 215.511719 2.25 C 215.152344 2.25 215.058594 2.066406 215.058594 1.84375 C 215.058594 1.523438 215.46875 1.480469 216.058594 1.480469 C 218.199219 1.480469 220.472656 1.570312 221.886719 1.570312 C 222.886719 1.570312 224.980469 1.480469 226.976562 1.480469 C 227.476562 1.480469 227.933594 1.570312 227.933594 1.84375 C 227.933594 2.117188 227.660156 2.25 227.300781 2.25 C 226.660156 2.25 226.070312 2.296875 225.753906 2.523438 C 225.480469 2.710938 225.34375 2.9375 225.34375 3.296875 C 225.34375 3.796875 225.707031 4.84375 226.25 6.210938 L 232.984375 23.542969 L 233.121094 23.542969 C 234.851562 19.539062 239.992188 7.074219 240.941406 4.527344 C 241.125 4.027344 241.308594 3.4375 241.308594 3.113281 C 241.308594 2.710938 241.125 2.570312 240.761719 2.433594 C 240.308594 2.296875 239.667969 2.25 239.171875 2.25 C 238.808594 2.25 238.488281 2.117188 238.488281 1.84375 C 238.488281 1.570312 238.851562 1.480469 239.621094 1.480469 C 241.625 1.480469 243.402344 1.570312 243.902344 1.570312 C 244.585938 1.570312 246.449219 1.480469 247.675781 1.480469 C 248.175781 1.480469 248.496094 1.570312 248.496094 1.84375 C 248.496094 2.117188 248.269531 2.25 247.859375 2.25 C 247.449219 2.25 246.585938 2.207031 245.902344 2.710938 C 245.402344 3.070312 244.859375 3.660156 243.808594 6.117188 C 242.21875 9.757812 241.167969 11.851562 238.988281 16.582031 C 236.4375 22.21875 234.578125 26.449219 233.667969 28.40625 C 232.664062 30.636719 232.300781 31.230469 231.757812 31.230469 C 231.210938 31.230469 230.890625 30.730469 230.117188 28.910156 L 220.019531 5.253906 "/>
<path style=" stroke:none;fill-rule:nonzero;fill:rgb(87.939453%,37.007141%,8.355713%);fill-opacity:1;" d="M 255.949219 12.671875 C 255.949219 6.800781 255.949219 5.707031 255.902344 4.480469 C 255.8125 3.160156 255.449219 2.75 254.175781 2.390625 C 253.859375 2.296875 253.175781 2.25 252.585938 2.25 C 252.175781 2.25 251.902344 2.117188 251.902344 1.84375 C 251.902344 1.566406 252.222656 1.480469 252.8125 1.480469 C 254.90625 1.480469 257.449219 1.566406 258.589844 1.566406 C 259.859375 1.566406 268.730469 1.617188 269.503906 1.566406 C 270.230469 1.523438 270.871094 1.386719 271.1875 1.34375 C 271.417969 1.296875 271.640625 1.160156 271.828125 1.160156 C 272.054688 1.160156 272.101562 1.34375 272.101562 1.523438 C 272.101562 1.796875 271.871094 2.25 271.78125 4.027344 C 271.734375 4.4375 271.640625 6.117188 271.550781 6.574219 C 271.507812 6.753906 271.417969 7.210938 271.097656 7.210938 C 270.824219 7.210938 270.777344 7.027344 270.777344 6.710938 C 270.777344 6.4375 270.734375 5.753906 270.503906 5.300781 C 270.1875 4.617188 269.867188 4.074219 267.871094 3.890625 C 267.1875 3.796875 262.40625 3.710938 261.59375 3.710938 C 261.40625 3.710938 261.320312 3.847656 261.320312 4.074219 L 261.320312 13.621094 C 261.320312 13.851562 261.363281 14.03125 261.59375 14.03125 C 262.5 14.03125 267.6875 14.03125 268.597656 13.941406 C 269.550781 13.851562 270.144531 13.757812 270.503906 13.351562 C 270.824219 13.078125 270.960938 12.851562 271.140625 12.851562 C 271.328125 12.851562 271.460938 13.03125 271.460938 13.261719 C 271.460938 13.488281 271.371094 14.121094 271.140625 16.078125 C 271.054688 16.851562 270.960938 18.402344 270.960938 18.675781 C 270.960938 18.992188 270.914062 19.539062 270.550781 19.539062 C 270.277344 19.539062 270.1875 19.402344 270.1875 19.21875 C 270.144531 18.808594 270.144531 18.3125 270.050781 17.8125 C 269.828125 17.035156 269.320312 16.445312 267.820312 16.308594 C 267.09375 16.21875 262.546875 16.125 261.542969 16.125 C 261.363281 16.125 261.320312 16.308594 261.320312 16.539062 L 261.320312 19.628906 C 261.320312 20.949219 261.273438 24.226562 261.320312 25.359375 C 261.40625 27.996094 262.636719 28.589844 266.730469 28.589844 C 267.777344 28.589844 269.460938 28.546875 270.503906 28.089844 C 271.507812 27.636719 271.960938 26.816406 272.234375 25.226562 C 272.324219 24.8125 272.414062 24.632812 272.691406 24.632812 C 273.007812 24.632812 273.054688 25.136719 273.054688 25.542969 C 273.054688 26.40625 272.738281 29.046875 272.507812 29.820312 C 272.234375 30.820312 271.871094 30.820312 270.367188 30.820312 C 267.367188 30.820312 264.957031 30.777344 262.996094 30.683594 C 261.046875 30.636719 259.546875 30.59375 258.359375 30.59375 C 257.90625 30.59375 257.042969 30.636719 256.085938 30.636719 C 255.132812 30.683594 254.132812 30.730469 253.3125 30.730469 C 252.8125 30.730469 252.539062 30.59375 252.539062 30.320312 C 252.539062 30.136719 252.675781 29.910156 253.175781 29.910156 C 253.769531 29.910156 254.222656 29.863281 254.585938 29.773438 C 255.402344 29.59375 255.628906 28.863281 255.769531 27.726562 C 255.949219 26.089844 255.949219 23.039062 255.949219 19.492188 L 255.949219 12.671875 "/>
<path style=" stroke:none;fill-rule:nonzero;fill:rgb(87.939453%,37.007141%,8.355713%);fill-opacity:1;" d="M 289.394531 15.671875 C 289.394531 16.078125 289.484375 16.214844 289.757812 16.351562 C 290.621094 16.628906 291.804688 16.71875 292.804688 16.71875 C 294.398438 16.71875 294.941406 16.582031 295.628906 16.078125 C 296.851562 15.21875 298.214844 13.535156 298.214844 10.347656 C 298.214844 4.890625 294.488281 3.480469 292.121094 3.480469 C 291.121094 3.480469 290.164062 3.527344 289.757812 3.617188 C 289.484375 3.710938 289.394531 3.847656 289.394531 4.160156 Z M 284.300781 12.671875 C 284.300781 6.800781 284.300781 5.707031 284.253906 4.480469 C 284.160156 3.160156 283.796875 2.75 282.523438 2.390625 C 282.207031 2.296875 281.523438 2.25 280.933594 2.25 C 280.523438 2.25 280.25 2.117188 280.25 1.84375 C 280.25 1.570312 280.566406 1.480469 281.15625 1.480469 C 283.253906 1.480469 285.796875 1.570312 286.617188 1.570312 C 287.984375 1.570312 291.621094 1.480469 292.851562 1.480469 C 295.398438 1.480469 298.308594 1.710938 300.445312 3.113281 C 301.585938 3.890625 303.269531 5.84375 303.269531 8.4375 C 303.269531 11.304688 301.632812 13.851562 297.71875 16.992188 C 301.269531 21.355469 304.089844 24.859375 306.496094 27.269531 C 308.726562 29.5 310.136719 29.683594 310.777344 29.820312 C 311.183594 29.910156 311.410156 29.910156 311.730469 29.910156 C 312.046875 29.910156 312.230469 30.136719 312.230469 30.320312 C 312.230469 30.636719 311.960938 30.730469 311.453125 30.730469 L 307.636719 30.730469 C 305.402344 30.730469 304.3125 30.5 303.269531 29.953125 C 301.539062 29.089844 300.035156 27.269531 297.804688 24.269531 C 296.21875 22.175781 294.535156 19.582031 294.035156 18.992188 C 293.804688 18.761719 293.578125 18.71875 293.308594 18.71875 L 289.714844 18.628906 C 289.53125 18.628906 289.394531 18.71875 289.394531 18.949219 L 289.394531 19.492188 C 289.394531 23.085938 289.4375 26.089844 289.621094 27.726562 C 289.757812 28.863281 289.941406 29.59375 291.167969 29.773438 C 291.761719 29.863281 292.621094 29.910156 293.121094 29.910156 C 293.4375 29.910156 293.621094 30.136719 293.621094 30.320312 C 293.621094 30.589844 293.308594 30.730469 292.804688 30.730469 C 290.484375 30.730469 287.160156 30.589844 286.570312 30.589844 C 285.796875 30.589844 283.253906 30.730469 281.660156 30.730469 C 281.15625 30.730469 280.886719 30.589844 280.886719 30.320312 C 280.886719 30.136719 281.023438 29.910156 281.523438 29.910156 C 282.113281 29.910156 282.570312 29.863281 282.933594 29.773438 C 283.753906 29.59375 283.980469 28.863281 284.117188 27.726562 C 284.300781 26.089844 284.300781 23.042969 284.300781 19.492188 L 284.300781 12.671875 "/>
<g clip-path="url(#clip3)" clip-rule="nonzero">
<path style=" stroke:none;fill-rule:nonzero;fill:rgb(87.939453%,37.007141%,8.355713%);fill-opacity:1;" d="M 315.257812 30.230469 C 314.625 29.953125 314.484375 29.773438 314.484375 28.90625 C 314.484375 26.816406 314.667969 24.40625 314.71875 23.769531 C 314.71875 23.175781 314.894531 22.765625 315.214844 22.765625 C 315.578125 22.765625 315.625 23.132812 315.625 23.402344 C 315.625 23.90625 315.761719 24.722656 315.988281 25.40625 C 316.851562 28.273438 319.855469 29.226562 322.355469 29.226562 C 325.8125 29.226562 327.90625 27.042969 327.90625 24.3125 C 327.90625 22.632812 327.496094 20.949219 323.949219 18.855469 L 321.628906 17.488281 C 316.894531 14.71875 315.351562 12.121094 315.351562 8.714844 C 315.351562 3.980469 319.902344 0.933594 325.449219 0.933594 C 328.039062 0.933594 330.089844 1.296875 331.136719 1.566406 C 331.5 1.660156 331.679688 1.796875 331.679688 2.066406 C 331.679688 2.570312 331.546875 3.660156 331.546875 6.710938 C 331.546875 7.53125 331.363281 7.9375 331.046875 7.9375 C 330.769531 7.9375 330.632812 7.707031 330.632812 7.253906 C 330.632812 6.890625 330.453125 5.707031 329.589844 4.707031 C 329 3.980469 327.726562 2.890625 325.128906 2.890625 C 322.265625 2.890625 319.671875 4.390625 319.671875 7.027344 C 319.671875 8.757812 320.3125 10.121094 323.902344 12.121094 L 325.539062 13.03125 C 330.816406 15.945312 332.457031 18.898438 332.457031 22.402344 C 332.457031 25.269531 331.363281 27.589844 328.449219 29.636719 C 326.539062 31 323.902344 31.230469 321.769531 31.230469 C 319.445312 31.230469 316.988281 31 315.257812 30.230469 "/>
</g>
<path style=" stroke:none;fill-rule:nonzero;fill:rgb(87.939453%,37.007141%,8.355713%);fill-opacity:1;" d="M 344.152344 12.671875 C 344.152344 6.800781 344.152344 5.707031 344.105469 4.480469 C 344.019531 3.160156 343.609375 2.707031 342.742188 2.433594 C 342.289062 2.296875 341.789062 2.25 341.289062 2.25 C 340.878906 2.25 340.652344 2.160156 340.652344 1.796875 C 340.652344 1.566406 340.96875 1.480469 341.605469 1.480469 C 343.109375 1.480469 345.839844 1.566406 346.972656 1.566406 C 347.976562 1.566406 350.566406 1.480469 352.117188 1.480469 C 352.613281 1.480469 352.9375 1.566406 352.9375 1.796875 C 352.9375 2.160156 352.707031 2.25 352.296875 2.25 C 351.890625 2.25 351.570312 2.296875 351.109375 2.390625 C 350.023438 2.570312 349.703125 3.113281 349.609375 4.480469 C 349.523438 5.707031 349.523438 6.800781 349.523438 12.671875 L 349.523438 19.492188 C 349.523438 23.222656 349.523438 26.316406 349.703125 27.953125 C 349.839844 29 350.113281 29.59375 351.296875 29.773438 C 351.839844 29.863281 352.753906 29.910156 353.34375 29.910156 C 353.796875 29.910156 353.980469 30.136719 353.980469 30.320312 C 353.980469 30.59375 353.660156 30.730469 353.207031 30.730469 C 350.566406 30.730469 347.839844 30.59375 346.746094 30.59375 C 345.839844 30.59375 343.109375 30.730469 341.515625 30.730469 C 341.015625 30.730469 340.742188 30.59375 340.742188 30.320312 C 340.742188 30.136719 340.878906 29.910156 341.378906 29.910156 C 341.972656 29.910156 342.425781 29.863281 342.789062 29.773438 C 343.609375 29.59375 343.835938 29.046875 343.976562 27.90625 C 344.152344 26.316406 344.152344 23.222656 344.152344 19.492188 L 344.152344 12.671875 "/>
<g clip-path="url(#clip4)" clip-rule="nonzero">
<path style=" stroke:none;fill-rule:nonzero;fill:rgb(87.939453%,37.007141%,8.355713%);fill-opacity:1;" d="M 369.792969 3.84375 L 363.832031 3.980469 C 361.511719 4.027344 360.554688 4.296875 359.96875 5.164062 C 359.558594 5.707031 359.371094 6.207031 359.28125 6.484375 C 359.1875 6.804688 359.101562 6.984375 358.824219 6.984375 C 358.550781 6.984375 358.464844 6.753906 358.464844 6.347656 C 358.464844 5.707031 359.234375 1.980469 359.324219 1.660156 C 359.421875 1.160156 359.558594 0.933594 359.78125 0.933594 C 360.101562 0.933594 360.507812 1.253906 361.511719 1.386719 C 362.695312 1.523438 364.195312 1.566406 365.511719 1.566406 L 381.753906 1.566406 C 383.027344 1.566406 383.890625 1.480469 384.484375 1.386719 C 385.117188 1.296875 385.4375 1.207031 385.570312 1.207031 C 385.847656 1.207031 385.894531 1.433594 385.894531 2.027344 C 385.894531 2.84375 385.804688 5.707031 385.804688 6.710938 C 385.761719 7.121094 385.667969 7.347656 385.4375 7.347656 C 385.117188 7.347656 385.027344 7.164062 384.984375 6.574219 L 384.9375 6.164062 C 384.847656 5.164062 383.800781 3.980469 380.210938 3.933594 L 375.15625 3.84375 L 375.15625 19.492188 C 375.15625 23.039062 375.203125 26.089844 375.386719 27.773438 C 375.523438 28.863281 375.75 29.59375 376.933594 29.773438 C 377.476562 29.867188 378.390625 29.910156 378.980469 29.910156 C 379.433594 29.910156 379.613281 30.136719 379.613281 30.320312 C 379.613281 30.59375 379.296875 30.730469 378.84375 30.730469 C 376.203125 30.730469 373.519531 30.59375 372.386719 30.59375 C 371.476562 30.59375 368.742188 30.730469 367.152344 30.730469 C 366.652344 30.730469 366.382812 30.59375 366.382812 30.320312 C 366.382812 30.136719 366.515625 29.910156 367.015625 29.910156 C 367.605469 29.910156 368.105469 29.867188 368.421875 29.773438 C 369.242188 29.59375 369.472656 28.863281 369.609375 27.730469 C 369.792969 26.089844 369.792969 23.039062 369.792969 19.492188 L 369.792969 3.84375 "/>
</g>
<path style=" stroke:none;fill-rule:nonzero;fill:rgb(87.939453%,37.007141%,8.355713%);fill-opacity:1;" d="M 401.953125 20.675781 C 401.953125 18.582031 401.585938 17.765625 401.039062 16.628906 C 400.769531 16.035156 395.308594 7.53125 393.898438 5.480469 C 392.898438 4.074219 392.078125 3.160156 391.308594 2.753906 C 390.804688 2.480469 390.125 2.25 389.621094 2.25 C 389.304688 2.25 389.035156 2.117188 389.035156 1.84375 C 389.035156 1.566406 389.304688 1.480469 389.808594 1.480469 C 390.488281 1.480469 393.492188 1.566406 394.808594 1.566406 C 395.675781 1.566406 397.539062 1.480469 399.359375 1.480469 C 399.726562 1.480469 399.949219 1.566406 399.949219 1.84375 C 399.949219 2.160156 399.675781 2.160156 399.039062 2.34375 C 398.722656 2.433594 398.496094 2.617188 398.496094 2.9375 C 398.496094 3.253906 398.675781 3.710938 398.996094 4.253906 C 399.726562 5.4375 404.953125 14.488281 405.636719 15.578125 C 406.136719 14.671875 411.007812 6.390625 411.597656 5.207031 C 412.007812 4.34375 412.183594 3.660156 412.183594 3.160156 C 412.183594 2.796875 412.007812 2.433594 411.320312 2.296875 C 410.960938 2.207031 410.597656 2.160156 410.597656 1.84375 C 410.597656 1.566406 410.820312 1.480469 411.277344 1.480469 C 412.597656 1.480469 414.011719 1.566406 415.1875 1.566406 C 416.054688 1.566406 418.691406 1.480469 419.46875 1.480469 C 419.925781 1.480469 420.195312 1.566406 420.195312 1.796875 C 420.195312 2.066406 419.875 2.25 419.417969 2.25 C 419.007812 2.25 418.285156 2.433594 417.691406 2.710938 C 416.824219 3.113281 416.460938 3.480469 415.597656 4.523438 C 414.28125 6.070312 408.546875 15.265625 407.820312 16.898438 C 407.226562 18.3125 407.316406 19.492188 407.316406 20.765625 L 407.316406 23.855469 C 407.316406 24.496094 407.316406 26.089844 407.410156 27.730469 C 407.5 28.863281 407.867188 29.59375 409.050781 29.773438 C 409.640625 29.867188 410.503906 29.90625 411.046875 29.90625 C 411.503906 29.90625 411.734375 30.136719 411.734375 30.320312 C 411.734375 30.59375 411.414062 30.730469 410.867188 30.730469 C 408.367188 30.730469 405.683594 30.59375 404.59375 30.59375 C 403.589844 30.59375 400.902344 30.730469 399.402344 30.730469 C 398.855469 30.730469 398.539062 30.636719 398.539062 30.320312 C 398.539062 30.136719 398.722656 29.90625 399.175781 29.90625 C 399.726562 29.90625 400.226562 29.867188 400.589844 29.773438 C 401.402344 29.59375 401.722656 28.863281 401.8125 27.730469 C 401.953125 26.089844 401.953125 24.496094 401.953125 23.855469 L 401.953125 20.675781 "/>
<g clip-path="url(#clip5)" clip-rule="nonzero">
<path style=" stroke:none;fill-rule:nonzero;fill:rgb(87.939453%,37.007141%,8.355713%);fill-opacity:1;" d="M 464.855469 16.808594 C 464.855469 8.257812 459.714844 2.980469 453.257812 2.980469 C 448.796875 2.980469 443.5625 5.34375 443.5625 14.898438 C 443.5625 22.859375 448.117188 29.136719 455.664062 29.136719 C 458.484375 29.136719 464.855469 27.816406 464.855469 16.808594 M 437.652344 16.078125 C 437.652344 9.484375 442.292969 0.933594 454.441406 0.933594 C 464.539062 0.933594 470.816406 6.527344 470.816406 15.398438 C 470.816406 24.269531 464.355469 31.230469 454.03125 31.230469 C 442.382812 31.230469 437.652344 22.949219 437.652344 16.078125 "/>
</g>
<path style=" stroke:none;fill-rule:nonzero;fill:rgb(87.939453%,37.007141%,8.355713%);fill-opacity:1;" d="M 484.421875 19.628906 C 484.421875 23.355469 484.472656 26.089844 484.652344 27.726562 C 484.785156 28.863281 485.0625 29.59375 486.242188 29.773438 C 486.789062 29.863281 487.648438 29.910156 488.199219 29.910156 C 488.699219 29.910156 488.878906 30.136719 488.878906 30.320312 C 488.878906 30.589844 488.609375 30.730469 488.015625 30.730469 C 485.472656 30.730469 482.648438 30.589844 481.605469 30.589844 C 480.554688 30.589844 478.007812 30.730469 476.507812 30.730469 C 475.960938 30.730469 475.6875 30.636719 475.6875 30.320312 C 475.6875 30.136719 475.824219 29.910156 476.277344 29.910156 C 476.871094 29.910156 477.324219 29.863281 477.691406 29.773438 C 478.511719 29.59375 478.738281 28.863281 478.875 27.726562 C 479.058594 26.089844 479.058594 23.222656 479.058594 19.492188 L 479.058594 12.671875 C 479.058594 6.800781 479.058594 5.710938 479.011719 4.480469 C 478.917969 3.160156 478.554688 2.703125 477.285156 2.390625 C 476.960938 2.300781 476.277344 2.253906 475.6875 2.253906 C 475.324219 2.253906 475.007812 2.117188 475.007812 1.84375 C 475.007812 1.570312 475.324219 1.480469 475.960938 1.480469 C 478.007812 1.480469 480.554688 1.570312 481.695312 1.570312 C 483.242188 1.570312 492.113281 1.613281 493.066406 1.570312 C 493.796875 1.523438 494.296875 1.480469 494.703125 1.386719 C 494.929688 1.34375 495.113281 1.160156 495.34375 1.160156 C 495.476562 1.160156 495.613281 1.34375 495.613281 1.523438 C 495.613281 1.796875 495.429688 2.253906 495.296875 3.253906 C 495.25 3.660156 495.160156 5.9375 495.113281 6.390625 C 495.066406 6.707031 494.980469 7.164062 494.703125 7.164062 C 494.429688 7.164062 494.203125 6.984375 494.203125 6.527344 C 494.203125 6.207031 494.25 5.617188 493.980469 5.074219 C 493.703125 4.527344 492.929688 3.9375 491.425781 3.890625 L 484.785156 3.753906 C 484.5625 3.753906 484.421875 3.84375 484.421875 4.300781 L 484.421875 13.671875 C 484.421875 13.894531 484.472656 14.035156 484.695312 14.035156 L 490.292969 13.988281 C 490.976562 13.988281 491.523438 13.988281 492.113281 13.941406 C 492.835938 13.894531 493.429688 13.757812 493.796875 13.257812 C 494.019531 13.03125 494.113281 12.851562 494.339844 12.851562 C 494.480469 12.851562 494.570312 12.988281 494.570312 13.214844 C 494.570312 13.445312 494.386719 14.484375 494.25 15.71875 C 494.15625 16.488281 494.113281 18.265625 494.113281 18.539062 C 494.113281 18.859375 494.066406 19.402344 493.65625 19.402344 C 493.429688 19.402344 493.292969 19.128906 493.292969 18.859375 C 493.292969 18.578125 493.203125 18.128906 493.019531 17.671875 C 492.835938 17.128906 492.34375 16.351562 491.113281 16.261719 C 490.109375 16.167969 485.378906 16.125 484.695312 16.125 C 484.515625 16.125 484.421875 16.167969 484.421875 16.445312 L 484.421875 19.628906 "/>
<path style=" stroke:none;fill-rule:nonzero;fill:rgb(87.939453%,37.007141%,8.355713%);fill-opacity:1;" d="M 41.648438 65.964844 L 19.734375 66.445312 C 11.203125 66.609375 7.695312 67.582031 5.515625 70.667969 C 4.011719 72.613281 3.34375 74.398438 3.011719 75.375 C 2.675781 76.511719 2.34375 77.160156 1.335938 77.160156 C 0.332031 77.160156 0 76.347656 0 74.890625 C 0 72.613281 2.84375 59.308594 3.175781 58.171875 C 3.511719 56.386719 4.011719 55.574219 4.847656 55.574219 C 6.019531 55.574219 7.523438 56.714844 11.203125 57.199219 C 15.550781 57.683594 21.074219 57.847656 25.921875 57.847656 L 86.863281 57.847656 C 91.550781 57.847656 94.726562 57.523438 96.902344 57.199219 C 99.242188 56.871094 100.414062 56.550781 100.921875 56.550781 C 101.917969 56.550781 102.085938 57.363281 102.085938 59.472656 C 102.085938 62.390625 101.753906 72.613281 101.753906 76.1875 C 101.585938 77.648438 101.25 78.460938 100.414062 78.460938 C 99.242188 78.460938 98.90625 77.808594 98.738281 75.695312 L 98.574219 74.238281 C 98.238281 70.667969 93.164062 66.445312 79.953125 66.28125 L 61.382812 65.964844 L 61.382812 121.789062 C 61.382812 134.445312 61.550781 145.320312 62.21875 151.324219 C 62.722656 155.222656 63.558594 157.816406 67.90625 158.464844 C 69.910156 158.789062 73.261719 158.953125 75.429688 158.953125 C 77.105469 158.953125 77.773438 159.765625 77.773438 160.410156 C 77.773438 161.386719 76.601562 161.875 74.929688 161.875 C 65.230469 161.875 55.363281 161.386719 51.179688 161.386719 C 47.835938 161.386719 37.796875 161.875 31.945312 161.875 C 30.105469 161.875 29.101562 161.386719 29.101562 160.410156 C 29.101562 159.765625 29.605469 158.953125 31.441406 158.953125 C 33.621094 158.953125 35.457031 158.789062 36.628906 158.464844 C 39.640625 157.816406 40.472656 155.222656 40.980469 151.164062 C 41.648438 145.320312 41.648438 134.445312 41.648438 121.789062 L 41.648438 65.964844 "/>
<path style=" stroke:none;fill-rule:nonzero;fill:rgb(87.939453%,37.007141%,8.355713%);fill-opacity:1;" d="M 124.015625 97.445312 C 124.015625 76.511719 124.015625 72.613281 123.84375 68.238281 C 123.507812 63.53125 122.171875 62.066406 117.488281 60.769531 C 116.320312 60.441406 113.808594 60.28125 111.632812 60.28125 C 110.132812 60.28125 109.128906 59.796875 109.128906 58.824219 C 109.128906 57.847656 110.296875 57.523438 112.46875 57.523438 C 120.164062 57.523438 129.53125 57.847656 133.710938 57.847656 C 138.398438 57.847656 173.070312 58.011719 175.914062 57.847656 C 178.589844 57.6875 180.933594 57.199219 182.101562 57.035156 C 182.9375 56.871094 183.773438 56.386719 184.441406 56.386719 C 185.28125 56.386719 185.445312 57.035156 185.445312 57.6875 C 185.445312 58.660156 184.613281 60.28125 184.277344 66.609375 C 184.109375 68.074219 183.773438 74.078125 183.4375 75.695312 C 183.273438 76.347656 182.9375 77.972656 181.765625 77.972656 C 180.765625 77.972656 180.597656 77.320312 180.597656 76.1875 C 180.597656 75.214844 180.429688 72.777344 179.59375 71.152344 C 178.421875 68.722656 177.25 66.773438 169.894531 66.125 C 167.382812 65.800781 147.765625 65.476562 144.753906 65.476562 C 144.082031 65.476562 143.746094 65.964844 143.746094 66.773438 L 143.746094 100.855469 C 143.746094 101.664062 143.914062 102.316406 144.753906 102.316406 C 148.097656 102.316406 169.222656 102.316406 172.566406 101.988281 C 176.078125 101.664062 178.253906 101.339844 179.59375 99.882812 C 180.765625 98.910156 181.265625 98.09375 181.933594 98.09375 C 182.605469 98.09375 183.105469 98.746094 183.105469 99.558594 C 183.105469 100.363281 182.769531 102.640625 181.933594 109.617188 C 181.601562 112.375 181.265625 117.894531 181.265625 118.867188 C 181.265625 120.007812 181.097656 121.949219 179.761719 121.949219 C 178.757812 121.949219 178.421875 121.464844 178.421875 120.816406 C 178.253906 119.355469 178.253906 117.570312 177.921875 115.785156 C 177.082031 113.027344 175.242188 110.917969 169.726562 110.429688 C 167.050781 110.105469 148.265625 109.777344 144.585938 109.777344 C 143.914062 109.777344 143.746094 110.429688 143.746094 111.238281 L 143.746094 122.277344 C 143.746094 126.984375 143.582031 138.667969 143.746094 142.726562 C 144.082031 152.136719 150.65625 154.242188 165.714844 154.242188 C 169.558594 154.242188 175.746094 154.085938 179.59375 152.460938 C 183.273438 150.839844 184.945312 147.917969 185.953125 142.234375 C 186.285156 140.777344 186.617188 140.128906 187.621094 140.128906 C 188.792969 140.128906 188.960938 141.914062 188.960938 143.371094 C 188.960938 146.457031 187.789062 155.871094 186.953125 158.628906 C 185.953125 162.195312 184.613281 162.195312 179.09375 162.195312 C 168.054688 162.195312 157.132812 162.035156 149.941406 161.710938 C 142.742188 161.550781 137.226562 161.386719 132.878906 161.386719 C 131.207031 161.386719 128.027344 161.550781 124.515625 161.550781 C 121 161.710938 117.320312 161.875 114.3125 161.875 C 112.46875 161.875 111.46875 161.386719 111.46875 160.414062 C 111.46875 159.765625 111.96875 158.949219 113.808594 158.949219 C 115.984375 158.949219 117.65625 158.789062 118.992188 158.46875 C 122.007812 157.816406 122.84375 155.222656 123.34375 151.164062 C 124.015625 145.320312 124.015625 134.445312 124.015625 121.792969 L 124.015625 97.445312 "/>
<path style=" stroke:none;fill-rule:nonzero;fill:rgb(87.939453%,37.007141%,8.355713%);fill-opacity:1;" d="M 372.765625 119.519531 L 344.328125 119.519531 C 343.828125 119.519531 343.492188 119.191406 343.828125 118.542969 L 358.046875 83.652344 C 358.214844 83.164062 358.378906 82.355469 358.882812 82.355469 C 359.214844 82.355469 359.382812 83.164062 359.550781 83.652344 L 373.433594 118.703125 C 373.601562 119.191406 373.433594 119.519531 372.765625 119.519531 Z M 422.609375 158.949219 C 420.9375 158.949219 419.265625 158.789062 417.089844 158.464844 C 414.414062 157.980469 410.230469 156.195312 404.542969 143.695312 C 395.179688 122.761719 370.59375 66.285156 367.074219 58.660156 C 365.570312 55.574219 364.304688 55.234375 362.730469 55.300781 C 361.496094 55.355469 360.050781 55.898438 358.378906 59.792969 L 319.910156 146.617188 C 316.984375 153.40625 313.402344 157.613281 308.773438 157.722656 C 306.996094 157.761719 306.917969 157.796875 305.046875 157.617188 C 302.046875 157.332031 300.320312 155.707031 297.8125 152.621094 C 294.132812 148.238281 269.714844 110.757812 265.027344 103.9375 L 289.449219 71.644531 C 293.964844 65.636719 296.644531 61.902344 299.984375 61.09375 C 301.992188 60.605469 303.835938 60.28125 305.339844 60.28125 C 306.84375 60.28125 307.679688 59.636719 307.679688 58.820312 C 307.679688 57.847656 306.675781 57.527344 305.007812 57.527344 C 299.484375 57.527344 293.464844 57.847656 290.621094 57.847656 C 287.777344 57.847656 280.921875 57.527344 275.230469 57.527344 C 273.058594 57.527344 272.050781 57.847656 272.050781 58.820312 C 272.050781 59.792969 273.058594 60.28125 273.894531 60.28125 C 275.066406 60.28125 277.074219 60.28125 278.574219 60.769531 C 280.078125 61.09375 281.089844 62.066406 281.089844 63.042969 C 281.089844 64.179688 280.585938 66.128906 279.414062 68.074219 C 276.902344 71.96875 263.855469 90.632812 259.511719 96.796875 C 253.65625 87.386719 247.636719 77.8125 241.113281 66.773438 C 240.277344 65.3125 239.609375 63.527344 239.609375 62.71875 C 239.609375 61.902344 240.277344 61.09375 241.613281 60.769531 C 242.785156 60.441406 244.292969 60.28125 245.128906 60.28125 C 246.46875 60.28125 247.472656 59.792969 247.472656 58.820312 C 247.472656 57.847656 246.46875 57.527344 244.460938 57.527344 C 238.941406 57.527344 229.90625 57.847656 227.898438 57.847656 C 220.871094 57.847656 208.996094 57.527344 205.484375 57.527344 C 203.644531 57.527344 202.476562 57.847656 202.476562 58.660156 C 202.476562 59.636719 203.144531 60.28125 203.980469 60.28125 C 205.484375 60.28125 207.824219 60.605469 210.167969 61.257812 C 215.351562 62.878906 218.363281 65.800781 222.046875 71.316406 L 247.972656 110.59375 L 219.199219 148.238281 C 214.1875 154.894531 211.84375 157.171875 207.492188 158.304688 C 205.320312 158.789062 203.144531 158.949219 202.140625 158.949219 C 200.96875 158.949219 200.132812 159.765625 200.132812 160.574219 C 200.132812 161.386719 200.804688 161.875 202.308594 161.875 L 204.816406 161.875 C 207.160156 161.875 214.351562 161.386719 217.191406 161.386719 C 220.871094 161.386719 230.574219 161.875 231.410156 161.875 L 234.085938 161.875 C 236.097656 161.875 237.097656 161.546875 237.097656 160.574219 C 237.097656 159.765625 236.097656 158.949219 235.261719 158.949219 C 234.085938 158.949219 232.914062 158.789062 232.082031 158.789062 C 230.738281 158.789062 229.40625 157.980469 229.238281 156.679688 C 229.066406 155.222656 229.90625 153.109375 231.410156 150.835938 L 252.992188 118.382812 C 259.675781 128.929688 267.707031 141.914062 276.234375 155.382812 C 277.40625 157.171875 276.40625 158.144531 275.738281 158.304688 C 274.394531 158.628906 273.695312 159.277344 273.726562 160.089844 C 273.773438 161.371094 274.027344 161.621094 278.914062 161.546875 C 289.457031 161.398438 302.625 161.433594 302.644531 161.433594 C 302.691406 161.433594 309.035156 161.484375 310.921875 161.535156 C 312.808594 161.585938 320.328125 161.636719 321.328125 161.636719 C 326.015625 161.636719 331.347656 161.890625 336.195312 161.890625 C 337.703125 161.890625 338.535156 161.5625 338.535156 160.429688 C 338.535156 159.621094 338.203125 158.96875 336.367188 158.96875 L 335.800781 158.949219 C 331.28125 158.949219 329.945312 157.492188 329.945312 155.058594 C 329.945312 153.433594 330.613281 150.027344 332.121094 146.617188 L 339.980469 128.117188 C 340.316406 127.304688 340.480469 127.144531 341.316406 127.144531 L 375.945312 127.144531 C 376.609375 127.144531 377.113281 127.304688 377.445312 128.117188 L 388.824219 155.871094 C 389.488281 157.492188 388.488281 158.789062 387.484375 158.949219 C 385.976562 159.113281 385.644531 159.601562 385.644531 160.414062 C 385.644531 161.386719 387.316406 161.386719 389.992188 161.546875 C 402.371094 161.875 413.074219 161.875 418.257812 161.875 C 423.777344 161.875 424.613281 161.546875 424.613281 160.414062 C 424.613281 159.441406 423.945312 158.949219 422.609375 158.949219 "/>
<g clip-path="url(#clip6)" clip-rule="nonzero">
<path style=" stroke:none;fill-rule:nonzero;fill:rgb(87.939453%,37.007141%,8.355713%);fill-opacity:1;" d="M 431.273438 155.359375 C 429.34375 154.011719 427.578125 152.742188 427.46875 150.140625 C 427.152344 142.691406 427.644531 133.738281 427.871094 131.664062 C 428.117188 129.398438 428.4375 126.984375 429.707031 126.894531 C 431.09375 126.800781 431.3125 127.628906 431.390625 128.605469 C 431.519531 130.390625 432.257812 134.234375 434.417969 137.941406 C 439.636719 146.90625 447.074219 154.777344 462.421875 154.8125 C 478.703125 154.851562 485.242188 147.550781 485.148438 137.257812 C 485.089844 131.234375 482.96875 125.601562 468.269531 118.132812 L 458.65625 113.257812 C 439.070312 103.355469 430.949219 94.402344 430.054688 82.222656 C 428.804688 65.335938 445.292969 54.175781 467.414062 54.175781 C 480.414062 54.175781 488.132812 56.988281 492.164062 58.191406 C 493.613281 58.621094 494.398438 59.285156 494.535156 60.4375 C 494.742188 62.21875 493.777344 64.226562 494.875 75.234375 C 495.164062 78.152344 494.472656 79.617188 493.203125 79.617188 C 492.113281 79.617188 491.511719 78.808594 491.390625 77.183594 C 491.296875 75.882812 490.257812 71.660156 486.550781 68.089844 C 484 65.488281 478.636719 61.597656 468.304688 61.597656 C 456.878906 61.597656 446.933594 66.949219 447.628906 76.371094 C 448.085938 82.539062 450.980469 87.410156 465.839844 94.554688 L 472.601562 97.804688 C 494.402344 108.195312 502.636719 118.722656 502.636719 131.25 C 502.636719 152.832031 484.871094 163.792969 463.472656 163.792969 C 442.726562 163.792969 433.402344 156.628906 431.273438 155.359375 "/>
</g>
<path style=" stroke:none;fill-rule:nonzero;fill:rgb(87.939453%,37.007141%,8.355713%);fill-opacity:1;" d="M 143.441406 207.628906 C 143.621094 207.628906 143.671875 207.535156 143.621094 207.398438 L 139.847656 197.570312 C 139.804688 197.4375 139.757812 197.207031 139.664062 197.207031 C 139.527344 197.207031 139.484375 197.4375 139.4375 197.570312 L 135.570312 207.355469 C 135.480469 207.535156 135.570312 207.628906 135.710938 207.628906 Z M 134.890625 209.765625 C 134.660156 209.765625 134.617188 209.8125 134.523438 210.039062 L 132.386719 215.226562 C 131.976562 216.179688 131.796875 217.132812 131.796875 217.59375 C 131.796875 218.269531 132.15625 218.679688 133.390625 218.679688 L 133.976562 218.679688 C 134.480469 218.679688 134.566406 218.863281 134.566406 219.089844 C 134.566406 219.40625 134.34375 219.5 133.933594 219.5 C 132.613281 219.5 130.746094 219.359375 129.476562 219.359375 C 129.0625 219.359375 126.929688 219.5 124.839844 219.5 C 124.335938 219.5 124.109375 219.40625 124.109375 219.089844 C 124.109375 218.863281 124.246094 218.679688 124.558594 218.679688 C 124.925781 218.679688 125.382812 218.632812 125.742188 218.632812 C 127.5625 218.359375 128.246094 217.179688 129.0625 215.226562 L 139.527344 190.882812 C 139.980469 189.792969 140.304688 189.339844 140.714844 189.339844 C 141.304688 189.339844 141.484375 189.703125 141.898438 190.566406 C 142.851562 192.707031 149.535156 208.535156 152.085938 214.402344 C 153.628906 217.910156 154.769531 218.410156 155.496094 218.542969 C 156.085938 218.632812 156.542969 218.679688 156.996094 218.679688 C 157.359375 218.679688 157.539062 218.816406 157.539062 219.089844 C 157.539062 219.40625 157.3125 219.5 155.8125 219.5 C 154.402344 219.5 151.492188 219.5 148.125 219.40625 C 147.398438 219.359375 146.941406 219.359375 146.941406 219.089844 C 146.941406 218.863281 147.035156 218.726562 147.441406 218.679688 C 147.714844 218.632812 147.988281 218.269531 147.808594 217.816406 L 144.714844 210.039062 C 144.625 209.8125 144.488281 209.765625 144.304688 209.765625 L 134.890625 209.765625 "/>
<path style=" stroke:none;fill-rule:nonzero;fill:rgb(87.939453%,37.007141%,8.355713%);fill-opacity:1;" d="M 167.445312 192.617188 L 161.484375 192.746094 C 159.164062 192.792969 158.210938 193.070312 157.617188 193.933594 C 157.210938 194.480469 157.027344 194.980469 156.9375 195.253906 C 156.847656 195.566406 156.753906 195.753906 156.480469 195.753906 C 156.203125 195.753906 156.117188 195.527344 156.117188 195.113281 C 156.117188 194.480469 156.890625 190.746094 156.980469 190.429688 C 157.074219 189.929688 157.210938 189.699219 157.4375 189.699219 C 157.757812 189.699219 158.167969 190.023438 159.164062 190.15625 C 160.347656 190.292969 161.851562 190.339844 163.167969 190.339844 L 179.410156 190.339844 C 180.683594 190.339844 181.546875 190.25 182.136719 190.15625 C 182.777344 190.066406 183.09375 189.976562 183.230469 189.976562 C 183.5 189.976562 183.550781 190.207031 183.550781 190.792969 C 183.550781 191.613281 183.460938 194.480469 183.460938 195.480469 C 183.410156 195.890625 183.320312 196.117188 183.09375 196.117188 C 182.777344 196.117188 182.683594 195.933594 182.636719 195.339844 L 182.59375 194.933594 C 182.503906 193.933594 181.453125 192.746094 177.863281 192.707031 L 172.808594 192.617188 L 172.808594 208.265625 C 172.808594 211.8125 172.859375 214.855469 173.039062 216.542969 C 173.175781 217.632812 173.40625 218.359375 174.589844 218.542969 C 175.132812 218.632812 176.042969 218.679688 176.636719 218.679688 C 177.089844 218.679688 177.273438 218.910156 177.273438 219.089844 C 177.273438 219.363281 176.949219 219.5 176.496094 219.5 C 173.859375 219.5 171.175781 219.363281 170.039062 219.363281 C 169.128906 219.363281 166.398438 219.5 164.808594 219.5 C 164.304688 219.5 164.035156 219.363281 164.035156 219.089844 C 164.035156 218.910156 164.167969 218.679688 164.667969 218.679688 C 165.261719 218.679688 165.761719 218.632812 166.082031 218.542969 C 166.898438 218.359375 167.125 217.632812 167.261719 216.496094 C 167.445312 214.855469 167.445312 211.8125 167.445312 208.265625 L 167.445312 192.617188 "/>
<path style=" stroke:none;fill-rule:nonzero;fill:rgb(87.939453%,37.007141%,8.355713%);fill-opacity:1;" d="M 218.984375 207.628906 C 219.167969 207.628906 219.214844 207.535156 219.167969 207.398438 L 215.390625 197.570312 C 215.347656 197.4375 215.300781 197.207031 215.214844 197.207031 C 215.074219 197.207031 215.027344 197.4375 214.984375 197.570312 L 211.117188 207.355469 C 211.023438 207.535156 211.117188 207.628906 211.253906 207.628906 Z M 210.433594 209.765625 C 210.203125 209.765625 210.15625 209.8125 210.070312 210.039062 L 207.929688 215.226562 C 207.519531 216.179688 207.34375 217.132812 207.34375 217.59375 C 207.34375 218.269531 207.703125 218.679688 208.933594 218.679688 L 209.523438 218.679688 C 210.023438 218.679688 210.113281 218.863281 210.113281 219.089844 C 210.113281 219.40625 209.890625 219.5 209.476562 219.5 C 208.15625 219.5 206.292969 219.359375 205.019531 219.359375 C 204.609375 219.359375 202.472656 219.5 200.378906 219.5 C 199.878906 219.5 199.652344 219.40625 199.652344 219.089844 C 199.652344 218.863281 199.785156 218.679688 200.109375 218.679688 C 200.46875 218.679688 200.925781 218.632812 201.289062 218.632812 C 203.109375 218.359375 203.789062 217.179688 204.609375 215.226562 L 215.074219 190.882812 C 215.527344 189.792969 215.847656 189.339844 216.257812 189.339844 C 216.847656 189.339844 217.027344 189.703125 217.4375 190.566406 C 218.394531 192.707031 225.082031 208.535156 227.628906 214.402344 C 229.175781 217.910156 230.3125 218.410156 231.042969 218.542969 C 231.636719 218.632812 232.089844 218.679688 232.542969 218.679688 C 232.902344 218.679688 233.089844 218.816406 233.089844 219.089844 C 233.089844 219.40625 232.859375 219.5 231.355469 219.5 C 229.949219 219.5 227.035156 219.5 223.671875 219.40625 C 222.941406 219.359375 222.488281 219.359375 222.488281 219.089844 C 222.488281 218.863281 222.578125 218.726562 222.992188 218.679688 C 223.261719 218.632812 223.535156 218.269531 223.355469 217.816406 L 220.261719 210.039062 C 220.167969 209.8125 220.03125 209.765625 219.851562 209.765625 L 210.433594 209.765625 "/>
<path style=" stroke:none;fill-rule:nonzero;fill:rgb(87.939453%,37.007141%,8.355713%);fill-opacity:1;" d="M 236.367188 201.441406 C 236.367188 195.566406 236.414062 194.480469 236.324219 193.253906 C 236.230469 191.886719 235.875 191.523438 234.597656 191.15625 C 234.277344 191.070312 233.59375 191.023438 233.050781 191.023438 C 232.597656 191.023438 232.363281 190.886719 232.363281 190.609375 C 232.363281 190.339844 232.640625 190.246094 233.230469 190.246094 C 235.371094 190.246094 238.054688 190.339844 239.234375 190.339844 C 240.238281 190.339844 242.921875 190.246094 244.378906 190.246094 C 244.972656 190.246094 245.238281 190.339844 245.238281 190.609375 C 245.238281 190.886719 245.015625 191.023438 244.605469 191.023438 C 244.152344 191.023438 243.925781 191.070312 243.421875 191.15625 C 242.375 191.339844 242.058594 191.886719 241.964844 193.253906 C 241.878906 194.480469 241.878906 195.566406 241.878906 201.441406 L 241.878906 206.851562 C 241.878906 212.492188 242.96875 214.675781 244.925781 216.222656 C 246.699219 217.632812 248.605469 217.769531 249.972656 217.769531 C 251.699219 217.769531 253.75 217.273438 255.335938 215.726562 C 257.570312 213.632812 257.660156 210.265625 257.660156 206.304688 L 257.660156 201.441406 C 257.660156 195.566406 257.613281 194.480469 257.570312 193.253906 C 257.476562 191.933594 257.160156 191.523438 255.886719 191.15625 C 255.566406 191.070312 254.882812 191.023438 254.429688 191.023438 C 253.976562 191.023438 253.75 190.886719 253.75 190.609375 C 253.75 190.339844 254.019531 190.246094 254.566406 190.246094 C 256.613281 190.246094 259.296875 190.339844 259.339844 190.339844 C 259.800781 190.339844 262.480469 190.246094 264.027344 190.246094 C 264.574219 190.246094 264.84375 190.339844 264.84375 190.609375 C 264.84375 190.886719 264.621094 191.023438 264.160156 191.023438 C 263.707031 191.023438 263.480469 191.070312 262.980469 191.15625 C 261.890625 191.339844 261.617188 191.886719 261.523438 193.253906 C 261.480469 194.480469 261.433594 195.566406 261.433594 201.441406 L 261.433594 205.578125 C 261.433594 209.898438 260.980469 214.449219 257.613281 217.226562 C 254.796875 219.589844 251.746094 220 249.152344 220 C 247.0625 220 242.921875 219.90625 240.011719 217.359375 C 237.964844 215.585938 236.367188 212.722656 236.367188 207.128906 L 236.367188 201.441406 "/>
<path style=" stroke:none;fill-rule:nonzero;fill:rgb(87.939453%,37.007141%,8.355713%);fill-opacity:1;" d="M 271.730469 218.996094 C 271.097656 218.726562 270.960938 218.542969 270.960938 217.679688 C 270.960938 215.585938 271.140625 213.175781 271.1875 212.539062 C 271.1875 211.945312 271.367188 211.539062 271.691406 211.539062 C 272.050781 211.539062 272.097656 211.902344 272.097656 212.175781 C 272.097656 212.675781 272.230469 213.492188 272.460938 214.179688 C 273.324219 217.039062 276.324219 218 278.828125 218 C 282.285156 218 284.378906 215.816406 284.378906 213.085938 C 284.378906 211.402344 283.96875 209.71875 280.425781 207.621094 L 278.101562 206.261719 C 273.371094 203.484375 271.824219 200.894531 271.824219 197.480469 C 271.824219 192.75 276.375 189.699219 281.921875 189.699219 C 284.515625 189.699219 286.5625 190.066406 287.605469 190.339844 C 287.972656 190.429688 288.15625 190.566406 288.15625 190.839844 C 288.15625 191.339844 288.015625 192.433594 288.015625 195.480469 C 288.015625 196.296875 287.835938 196.707031 287.515625 196.707031 C 287.242188 196.707031 287.109375 196.480469 287.109375 196.027344 C 287.109375 195.660156 286.925781 194.480469 286.0625 193.480469 C 285.472656 192.75 284.195312 191.660156 281.605469 191.660156 C 278.734375 191.660156 276.148438 193.15625 276.148438 195.796875 C 276.148438 197.527344 276.78125 198.890625 280.371094 200.894531 L 282.011719 201.800781 C 287.289062 204.714844 288.925781 207.667969 288.925781 211.175781 C 288.925781 214.039062 287.835938 216.359375 284.925781 218.410156 C 283.011719 219.773438 280.371094 220 278.234375 220 C 275.917969 220 273.460938 219.773438 271.730469 218.996094 "/>
<path style=" stroke:none;fill-rule:nonzero;fill:rgb(87.939453%,37.007141%,8.355713%);fill-opacity:1;" d="M 306.074219 192.617188 L 300.113281 192.746094 C 297.796875 192.792969 296.839844 193.070312 296.246094 193.933594 C 295.839844 194.480469 295.65625 194.980469 295.566406 195.253906 C 295.472656 195.566406 295.386719 195.753906 295.109375 195.753906 C 294.835938 195.753906 294.746094 195.527344 294.746094 195.113281 C 294.746094 194.480469 295.519531 190.746094 295.609375 190.429688 C 295.695312 189.929688 295.839844 189.699219 296.066406 189.699219 C 296.382812 189.699219 296.792969 190.023438 297.796875 190.15625 C 298.976562 190.292969 300.480469 190.339844 301.796875 190.339844 L 318.039062 190.339844 C 319.3125 190.339844 320.175781 190.25 320.769531 190.15625 C 321.40625 190.066406 321.722656 189.976562 321.859375 189.976562 C 322.132812 189.976562 322.179688 190.207031 322.179688 190.792969 C 322.179688 191.613281 322.085938 194.480469 322.085938 195.480469 C 322.042969 195.890625 321.949219 196.117188 321.722656 196.117188 C 321.40625 196.117188 321.3125 195.933594 321.269531 195.339844 L 321.222656 194.933594 C 321.132812 193.933594 320.085938 192.746094 316.492188 192.707031 L 311.441406 192.617188 L 311.441406 208.265625 C 311.441406 211.8125 311.488281 214.855469 311.671875 216.542969 C 311.804688 217.632812 312.035156 218.359375 313.21875 218.542969 C 313.761719 218.632812 314.671875 218.679688 315.265625 218.679688 C 315.71875 218.679688 315.898438 218.910156 315.898438 219.089844 C 315.898438 219.363281 315.582031 219.5 315.128906 219.5 C 312.488281 219.5 309.804688 219.363281 308.664062 219.363281 C 307.757812 219.363281 305.027344 219.5 303.4375 219.5 C 302.933594 219.5 302.660156 219.363281 302.660156 219.089844 C 302.660156 218.910156 302.800781 218.679688 303.300781 218.679688 C 303.890625 218.679688 304.390625 218.632812 304.707031 218.542969 C 305.527344 218.359375 305.757812 217.632812 305.890625 216.496094 C 306.074219 214.855469 306.074219 211.8125 306.074219 208.265625 L 306.074219 192.617188 "/>
<path style=" stroke:none;fill-rule:nonzero;fill:rgb(87.939453%,37.007141%,8.355713%);fill-opacity:1;" d="M 331.472656 201.441406 C 331.472656 195.566406 331.472656 194.480469 331.425781 193.253906 C 331.335938 191.933594 330.929688 191.476562 330.0625 191.203125 C 329.605469 191.070312 329.105469 191.023438 328.605469 191.023438 C 328.191406 191.023438 327.96875 190.929688 327.96875 190.566406 C 327.96875 190.339844 328.289062 190.246094 328.929688 190.246094 C 330.429688 190.246094 333.15625 190.339844 334.292969 190.339844 C 335.296875 190.339844 337.886719 190.246094 339.433594 190.246094 C 339.933594 190.246094 340.253906 190.339844 340.253906 190.566406 C 340.253906 190.929688 340.023438 191.023438 339.617188 191.023438 C 339.207031 191.023438 338.886719 191.070312 338.433594 191.15625 C 337.34375 191.339844 337.023438 191.886719 336.933594 193.253906 C 336.839844 194.480469 336.839844 195.566406 336.839844 201.441406 L 336.839844 208.265625 C 336.839844 211.996094 336.839844 215.085938 337.023438 216.726562 C 337.15625 217.769531 337.433594 218.359375 338.613281 218.542969 C 339.160156 218.632812 340.070312 218.679688 340.664062 218.679688 C 341.117188 218.679688 341.300781 218.910156 341.300781 219.089844 C 341.300781 219.363281 340.980469 219.496094 340.527344 219.496094 C 337.886719 219.496094 335.15625 219.363281 334.066406 219.363281 C 333.15625 219.363281 330.429688 219.496094 328.835938 219.496094 C 328.332031 219.496094 328.058594 219.363281 328.058594 219.089844 C 328.058594 218.910156 328.191406 218.679688 328.695312 218.679688 C 329.289062 218.679688 329.742188 218.632812 330.109375 218.542969 C 330.929688 218.359375 331.152344 217.816406 331.292969 216.679688 C 331.472656 215.085938 331.472656 211.996094 331.472656 208.265625 L 331.472656 201.441406 "/>
<path style=" stroke:none;fill-rule:nonzero;fill:rgb(87.939453%,37.007141%,8.355713%);fill-opacity:1;" d="M 353.648438 214.222656 C 353.738281 217.226562 354.242188 218.136719 355.015625 218.40625 C 355.695312 218.632812 356.472656 218.679688 357.105469 218.679688 C 357.5625 218.679688 357.789062 218.863281 357.789062 219.089844 C 357.789062 219.410156 357.425781 219.5 356.878906 219.5 C 354.289062 219.5 352.425781 219.363281 351.691406 219.363281 C 351.328125 219.363281 349.421875 219.5 347.371094 219.5 C 346.828125 219.5 346.464844 219.453125 346.464844 219.089844 C 346.464844 218.863281 346.734375 218.679688 347.101562 218.679688 C 347.644531 218.679688 348.375 218.632812 348.921875 218.5 C 349.964844 218.226562 350.101562 217.179688 350.148438 213.8125 L 350.511719 190.886719 C 350.511719 190.109375 350.78125 189.566406 351.191406 189.566406 C 351.691406 189.566406 352.238281 190.15625 352.925781 190.839844 C 353.425781 191.339844 359.429688 197.480469 365.25 203.167969 C 367.980469 205.855469 373.304688 211.3125 373.890625 211.855469 L 374.078125 211.855469 L 373.667969 194.664062 C 373.621094 192.296875 373.253906 191.613281 372.300781 191.25 C 371.710938 191.023438 370.753906 191.023438 370.210938 191.023438 C 369.710938 191.023438 369.574219 190.839844 369.574219 190.613281 C 369.574219 190.292969 369.984375 190.25 370.574219 190.25 C 372.664062 190.25 374.804688 190.339844 375.664062 190.339844 C 376.125 190.339844 377.625 190.25 379.578125 190.25 C 380.125 190.25 380.492188 190.292969 380.492188 190.613281 C 380.492188 190.839844 380.261719 191.023438 379.808594 191.023438 C 379.398438 191.023438 379.078125 191.023438 378.574219 191.15625 C 377.484375 191.476562 377.167969 192.15625 377.125 194.34375 L 376.671875 218.726562 C 376.671875 219.589844 376.347656 219.957031 376.03125 219.957031 C 375.347656 219.957031 374.804688 219.542969 374.394531 219.136719 C 371.890625 216.816406 366.890625 212.039062 362.703125 207.988281 C 358.335938 203.804688 354.109375 199.117188 353.332031 198.4375 L 353.195312 198.4375 L 353.648438 214.222656 "/>
</g>
</svg>
